<?xml version="1.0" encoding="UTF-8"?>
<svg id="Layer_1" data-name="Layer 1" xmlns="http://www.w3.org/2000/svg" viewBox="0 0 4331.24 4300.13">
  <defs>
    <style>
      .cls-1 {
        fill: #ab684f;
      }
    </style>
  </defs>
  <path class="cls-1" d="M554.93,1212.91v1874.3c0,168.08-225.14,224.37-303.87,75.88C90.78,2860.81,0,2516.04,0,2150.06s90.78-710.75,251.06-1013.03c78.74-148.5,303.87-92.2,303.87,75.88Z"/>
  <path class="cls-1" d="M1335.03,4150.68c-46.8-19.45-92.78-40.5-137.85-63.07-78.85-39.49-128.43-120.34-128.43-208.52V421.04c0-88.18,49.58-169.03,128.43-208.52,45.08-22.57,91.05-43.62,137.85-63.07,153.69-63.88,322.92,49.26,322.92,215.69v3569.86c0,166.44-169.23,279.57-322.92,215.69Z"/>
  <path class="cls-1" d="M2165.62,4053.91c0,148.27,130.13,262.99,277.2,244.2,1065.13-136.09,1888.42-1045.92,1888.42-2148.04S3507.95,138.11,2442.82,2.02c-147.07-18.79-277.2,95.93-277.2,244.2v3807.68Z"/>
</svg>